<mxfile host="Electron" agent="Mozilla/5.0 (Windows NT 10.0; Win64; x64) AppleWebKit/537.36 (KHTML, like Gecko) draw.io/26.1.1 Chrome/132.0.6834.210 Electron/34.3.3 Safari/537.36" version="26.1.1">
  <diagram name="Page-1" id="e7e014a7-5840-1c2e-5031-d8a46d1fe8dd">
    <mxGraphModel dx="1050" dy="621" grid="1" gridSize="10" guides="1" tooltips="1" connect="1" arrows="1" fold="1" page="1" pageScale="1" pageWidth="1169" pageHeight="826" background="none" math="0" shadow="0">
      <root>
        <mxCell id="0" />
        <mxCell id="1" parent="0" />
        <mxCell id="Gs0ZBiKjtMknKWzkRTu3-25" value="UC01 - Register via email/password" style="text;html=1;align=center;verticalAlign=middle;resizable=0;points=[];autosize=1;strokeColor=none;fillColor=none;fontStyle=1" parent="1" vertex="1">
          <mxGeometry x="300" y="20" width="210" height="30" as="geometry" />
        </mxCell>
        <mxCell id="SdXVaaNEvUZt3BRUcJFM-23" value="" style="edgeStyle=orthogonalEdgeStyle;rounded=0;orthogonalLoop=1;jettySize=auto;html=1;" parent="1" source="SdXVaaNEvUZt3BRUcJFM-22" target="SYC82ApEadeK91cOj7VY-3" edge="1">
          <mxGeometry relative="1" as="geometry">
            <Array as="points" />
            <mxPoint x="280" y="112.5" as="targetPoint" />
          </mxGeometry>
        </mxCell>
        <mxCell id="SdXVaaNEvUZt3BRUcJFM-22" value="&lt;span style=&quot;font-size: 10px;&quot;&gt;PRE-1: The user is not logged in&lt;/span&gt;" style="shape=note;size=20;whiteSpace=wrap;html=1;fillColor=#fff2cc;strokeColor=#d6b656;" parent="1" vertex="1">
          <mxGeometry x="160" y="90" width="100" height="45" as="geometry" />
        </mxCell>
        <mxCell id="SYC82ApEadeK91cOj7VY-3" value="" style="ellipse;html=1;shape=startState;fillColor=#000000;strokeColor=#ff0000;" parent="1" vertex="1">
          <mxGeometry x="290" y="97.5" width="30" height="30" as="geometry" />
        </mxCell>
        <mxCell id="SYC82ApEadeK91cOj7VY-4" value="" style="edgeStyle=orthogonalEdgeStyle;html=1;verticalAlign=bottom;endArrow=open;endSize=8;strokeColor=#ff0000;rounded=0;" parent="1" source="SYC82ApEadeK91cOj7VY-3" target="SYC82ApEadeK91cOj7VY-1" edge="1">
          <mxGeometry relative="1" as="geometry">
            <mxPoint x="305" y="187.5" as="targetPoint" />
          </mxGeometry>
        </mxCell>
        <mxCell id="SYC82ApEadeK91cOj7VY-1" value="&lt;span style=&quot;font-size: 10px;&quot;&gt;Accesses to the registration page&lt;/span&gt;" style="rounded=1;whiteSpace=wrap;html=1;arcSize=40;fontColor=#000000;fillColor=#ffffc0;strokeColor=#ff0000;" parent="1" vertex="1">
          <mxGeometry x="245" y="147.5" width="120" height="40" as="geometry" />
        </mxCell>
        <mxCell id="SYC82ApEadeK91cOj7VY-2" value="" style="edgeStyle=orthogonalEdgeStyle;html=1;verticalAlign=bottom;endArrow=open;endSize=8;strokeColor=#ff0000;rounded=0;entryX=0;entryY=0.5;entryDx=0;entryDy=0;" parent="1" source="SYC82ApEadeK91cOj7VY-1" target="zcDVGkyEsJZhLmUj3jBQ-1" edge="1">
          <mxGeometry relative="1" as="geometry">
            <mxPoint x="470" y="167.5" as="targetPoint" />
          </mxGeometry>
        </mxCell>
        <mxCell id="YO_dP_Viq0sDFjpl-b0u-2" value="" style="edgeStyle=orthogonalEdgeStyle;rounded=0;orthogonalLoop=1;jettySize=auto;html=1;" parent="1" source="SdXVaaNEvUZt3BRUcJFM-21" target="YO_dP_Viq0sDFjpl-b0u-1" edge="1">
          <mxGeometry relative="1" as="geometry">
            <Array as="points">
              <mxPoint x="660" y="632.5" />
              <mxPoint x="660" y="632.5" />
            </Array>
          </mxGeometry>
        </mxCell>
        <mxCell id="SdXVaaNEvUZt3BRUcJFM-21" value="&lt;font style=&quot;font-size: 10px;&quot;&gt;Go to UC4.2&lt;/font&gt;" style="shape=note;size=20;whiteSpace=wrap;html=1;fillColor=#fff2cc;strokeColor=#d6b656;" parent="1" vertex="1">
          <mxGeometry x="610" y="580" width="100" height="45" as="geometry" />
        </mxCell>
        <mxCell id="YO_dP_Viq0sDFjpl-b0u-1" value="" style="ellipse;html=1;shape=endState;fillColor=#000000;strokeColor=#ff0000;" parent="1" vertex="1">
          <mxGeometry x="645" y="645" width="30" height="30" as="geometry" />
        </mxCell>
        <mxCell id="zcDVGkyEsJZhLmUj3jBQ-1" value="&lt;span style=&quot;font-size: 10px;&quot;&gt;Displays a registration form&lt;/span&gt;" style="rounded=1;whiteSpace=wrap;html=1;arcSize=40;fontColor=#000000;fillColor=#ffffc0;strokeColor=#ff0000;" parent="1" vertex="1">
          <mxGeometry x="470.5" y="147.5" width="120" height="40" as="geometry" />
        </mxCell>
        <mxCell id="zcDVGkyEsJZhLmUj3jBQ-2" value="" style="edgeStyle=orthogonalEdgeStyle;html=1;verticalAlign=bottom;endArrow=open;endSize=8;strokeColor=#ff0000;rounded=0;" parent="1" source="zcDVGkyEsJZhLmUj3jBQ-1" target="zcDVGkyEsJZhLmUj3jBQ-3" edge="1">
          <mxGeometry relative="1" as="geometry">
            <mxPoint x="531" y="163" as="targetPoint" />
            <Array as="points">
              <mxPoint x="531" y="210" />
            </Array>
          </mxGeometry>
        </mxCell>
        <mxCell id="zcDVGkyEsJZhLmUj3jBQ-3" value="&lt;font style=&quot;font-size: 10px; border-color: var(--border-color);&quot;&gt;&amp;nbsp;&lt;/font&gt;&lt;span style=&quot;font-size: 10px;&quot;&gt;Enter the information&lt;/span&gt;" style="rounded=1;whiteSpace=wrap;html=1;arcSize=40;fontColor=#000000;fillColor=#ffffc0;strokeColor=#ff0000;" parent="1" vertex="1">
          <mxGeometry x="245" y="200" width="120" height="40" as="geometry" />
        </mxCell>
        <mxCell id="zcDVGkyEsJZhLmUj3jBQ-4" value="" style="edgeStyle=orthogonalEdgeStyle;html=1;verticalAlign=bottom;endArrow=open;endSize=8;strokeColor=#ff0000;rounded=0;entryX=0.5;entryY=0;entryDx=0;entryDy=0;" parent="1" source="zcDVGkyEsJZhLmUj3jBQ-3" target="zcDVGkyEsJZhLmUj3jBQ-6" edge="1">
          <mxGeometry relative="1" as="geometry">
            <mxPoint x="120" y="328" as="targetPoint" />
          </mxGeometry>
        </mxCell>
        <mxCell id="zcDVGkyEsJZhLmUj3jBQ-6" value="&lt;span style=&quot;font-size: 10px;&quot;&gt;Submits the registration form&lt;/span&gt;" style="rounded=1;whiteSpace=wrap;html=1;arcSize=40;fontColor=#000000;fillColor=#ffffc0;strokeColor=#ff0000;" parent="1" vertex="1">
          <mxGeometry x="245" y="260" width="120" height="40" as="geometry" />
        </mxCell>
        <mxCell id="zcDVGkyEsJZhLmUj3jBQ-7" value="" style="edgeStyle=orthogonalEdgeStyle;html=1;verticalAlign=bottom;endArrow=open;endSize=8;strokeColor=#ff0000;rounded=0;" parent="1" source="zcDVGkyEsJZhLmUj3jBQ-6" target="zcDVGkyEsJZhLmUj3jBQ-8" edge="1">
          <mxGeometry relative="1" as="geometry">
            <mxPoint x="300" y="407.5" as="targetPoint" />
          </mxGeometry>
        </mxCell>
        <mxCell id="zcDVGkyEsJZhLmUj3jBQ-8" value="Validate user input" style="rounded=1;whiteSpace=wrap;html=1;arcSize=40;fontColor=#000000;fillColor=#ffffc0;strokeColor=#ff0000;" parent="1" vertex="1">
          <mxGeometry x="460" y="260" width="120" height="40" as="geometry" />
        </mxCell>
        <mxCell id="zcDVGkyEsJZhLmUj3jBQ-9" value="" style="edgeStyle=orthogonalEdgeStyle;html=1;verticalAlign=bottom;endArrow=open;endSize=8;strokeColor=#ff0000;rounded=0;" parent="1" source="zcDVGkyEsJZhLmUj3jBQ-8" target="zcDVGkyEsJZhLmUj3jBQ-23" edge="1">
          <mxGeometry relative="1" as="geometry">
            <mxPoint x="520" y="390.5" as="targetPoint" />
          </mxGeometry>
        </mxCell>
        <mxCell id="zcDVGkyEsJZhLmUj3jBQ-10" value="&lt;span style=&quot;font-size: 10px;&quot;&gt;Displays detailed error message&lt;/span&gt;" style="rounded=1;whiteSpace=wrap;html=1;arcSize=40;fontColor=#000000;fillColor=#ffffc0;strokeColor=#ff0000;" parent="1" vertex="1">
          <mxGeometry x="590" y="320" width="120" height="40" as="geometry" />
        </mxCell>
        <mxCell id="zcDVGkyEsJZhLmUj3jBQ-11" value="" style="edgeStyle=orthogonalEdgeStyle;html=1;verticalAlign=bottom;endArrow=open;endSize=8;strokeColor=#ff0000;rounded=0;" parent="1" source="zcDVGkyEsJZhLmUj3jBQ-10" target="zcDVGkyEsJZhLmUj3jBQ-3" edge="1">
          <mxGeometry relative="1" as="geometry">
            <mxPoint x="650" y="490" as="targetPoint" />
            <Array as="points">
              <mxPoint x="650" y="230" />
            </Array>
          </mxGeometry>
        </mxCell>
        <mxCell id="zcDVGkyEsJZhLmUj3jBQ-12" value="&lt;span style=&quot;font-size: 10px;&quot;&gt;Checks the email is already registered&lt;/span&gt;" style="rounded=1;whiteSpace=wrap;html=1;arcSize=40;fontColor=#000000;fillColor=#ffffc0;strokeColor=#ff0000;" parent="1" vertex="1">
          <mxGeometry x="460" y="393" width="120" height="40" as="geometry" />
        </mxCell>
        <mxCell id="zcDVGkyEsJZhLmUj3jBQ-13" value="" style="edgeStyle=orthogonalEdgeStyle;html=1;verticalAlign=bottom;endArrow=open;endSize=8;strokeColor=#ff0000;rounded=0;" parent="1" source="zcDVGkyEsJZhLmUj3jBQ-12" target="zcDVGkyEsJZhLmUj3jBQ-27" edge="1">
          <mxGeometry relative="1" as="geometry">
            <mxPoint x="521" y="537.5000000000001" as="targetPoint" />
          </mxGeometry>
        </mxCell>
        <mxCell id="zcDVGkyEsJZhLmUj3jBQ-15" value="&lt;span style=&quot;font-size: 10px;&quot;&gt;Displays error message&lt;/span&gt;" style="rounded=1;whiteSpace=wrap;html=1;arcSize=40;fontColor=#000000;fillColor=#ffffc0;strokeColor=#ff0000;" parent="1" vertex="1">
          <mxGeometry x="610" y="450" width="120" height="40" as="geometry" />
        </mxCell>
        <mxCell id="zcDVGkyEsJZhLmUj3jBQ-16" value="" style="edgeStyle=orthogonalEdgeStyle;html=1;verticalAlign=bottom;endArrow=open;endSize=8;strokeColor=#ff0000;rounded=0;" parent="1" source="zcDVGkyEsJZhLmUj3jBQ-15" target="zcDVGkyEsJZhLmUj3jBQ-3" edge="1">
          <mxGeometry relative="1" as="geometry">
            <mxPoint x="670" y="641" as="targetPoint" />
            <Array as="points">
              <mxPoint x="720" y="220" />
            </Array>
          </mxGeometry>
        </mxCell>
        <mxCell id="zcDVGkyEsJZhLmUj3jBQ-17" value="&lt;span style=&quot;font-size: 10px;&quot;&gt;Creates a new account in the database with an unverified status&lt;/span&gt;" style="rounded=1;whiteSpace=wrap;html=1;arcSize=40;fontColor=#000000;fillColor=#ffffc0;strokeColor=#ff0000;" parent="1" vertex="1">
          <mxGeometry x="459.99999999999994" y="520" width="120" height="40" as="geometry" />
        </mxCell>
        <mxCell id="zcDVGkyEsJZhLmUj3jBQ-18" value="" style="edgeStyle=orthogonalEdgeStyle;html=1;verticalAlign=bottom;endArrow=open;endSize=8;strokeColor=#ff0000;rounded=0;" parent="1" source="zcDVGkyEsJZhLmUj3jBQ-17" target="zcDVGkyEsJZhLmUj3jBQ-19" edge="1">
          <mxGeometry relative="1" as="geometry">
            <mxPoint x="518.67" y="710" as="targetPoint" />
          </mxGeometry>
        </mxCell>
        <mxCell id="zcDVGkyEsJZhLmUj3jBQ-19" value="&lt;span style=&quot;font-size: 10px;&quot;&gt;Creates an OTP and sends it to the user&#39;s email&lt;/span&gt;" style="rounded=1;whiteSpace=wrap;html=1;arcSize=40;fontColor=#000000;fillColor=#ffffc0;strokeColor=#ff0000;" parent="1" vertex="1">
          <mxGeometry x="460" y="580" width="120" height="40" as="geometry" />
        </mxCell>
        <mxCell id="zcDVGkyEsJZhLmUj3jBQ-20" value="" style="edgeStyle=orthogonalEdgeStyle;html=1;verticalAlign=bottom;endArrow=open;endSize=8;strokeColor=#ff0000;rounded=0;" parent="1" source="zcDVGkyEsJZhLmUj3jBQ-19" target="zcDVGkyEsJZhLmUj3jBQ-21" edge="1">
          <mxGeometry relative="1" as="geometry">
            <mxPoint x="525" y="787.5" as="targetPoint" />
          </mxGeometry>
        </mxCell>
        <mxCell id="zcDVGkyEsJZhLmUj3jBQ-21" value="&lt;span style=&quot;font-size: 10px;&quot;&gt;Redirects the user to the OTP verification page&lt;/span&gt;" style="rounded=1;whiteSpace=wrap;html=1;arcSize=40;fontColor=#000000;fillColor=#ffffc0;strokeColor=#ff0000;" parent="1" vertex="1">
          <mxGeometry x="460" y="640" width="120" height="40" as="geometry" />
        </mxCell>
        <mxCell id="zcDVGkyEsJZhLmUj3jBQ-22" value="" style="edgeStyle=orthogonalEdgeStyle;html=1;verticalAlign=bottom;endArrow=open;endSize=8;strokeColor=#ff0000;rounded=0;" parent="1" target="YO_dP_Viq0sDFjpl-b0u-1" edge="1">
          <mxGeometry relative="1" as="geometry">
            <mxPoint x="520" y="762.5" as="targetPoint" />
            <mxPoint x="580" y="660" as="sourcePoint" />
            <Array as="points">
              <mxPoint x="580" y="660" />
            </Array>
          </mxGeometry>
        </mxCell>
        <mxCell id="zcDVGkyEsJZhLmUj3jBQ-23" value="&lt;span style=&quot;font-size: 10px;&quot;&gt;Is valid?&lt;/span&gt;" style="rhombus;whiteSpace=wrap;html=1;fontColor=#000000;fillColor=#ffffc0;strokeColor=#ff0000;" parent="1" vertex="1">
          <mxGeometry x="480" y="320" width="80" height="40" as="geometry" />
        </mxCell>
        <mxCell id="zcDVGkyEsJZhLmUj3jBQ-24" value="no" style="edgeStyle=orthogonalEdgeStyle;html=1;align=left;verticalAlign=bottom;endArrow=open;endSize=8;strokeColor=#ff0000;rounded=0;" parent="1" source="zcDVGkyEsJZhLmUj3jBQ-23" target="zcDVGkyEsJZhLmUj3jBQ-10" edge="1">
          <mxGeometry x="-1" relative="1" as="geometry">
            <mxPoint x="555" y="400" as="targetPoint" />
          </mxGeometry>
        </mxCell>
        <mxCell id="zcDVGkyEsJZhLmUj3jBQ-25" value="yes" style="edgeStyle=orthogonalEdgeStyle;html=1;align=left;verticalAlign=top;endArrow=open;endSize=8;strokeColor=#ff0000;rounded=0;" parent="1" source="zcDVGkyEsJZhLmUj3jBQ-23" target="zcDVGkyEsJZhLmUj3jBQ-12" edge="1">
          <mxGeometry x="-1" relative="1" as="geometry">
            <mxPoint x="415" y="480" as="targetPoint" />
          </mxGeometry>
        </mxCell>
        <mxCell id="zcDVGkyEsJZhLmUj3jBQ-27" value="&lt;span style=&quot;font-size: 10px;&quot;&gt;Is exist?&lt;/span&gt;" style="rhombus;whiteSpace=wrap;html=1;fontColor=#000000;fillColor=#ffffc0;strokeColor=#ff0000;" parent="1" vertex="1">
          <mxGeometry x="480" y="450" width="80" height="40" as="geometry" />
        </mxCell>
        <mxCell id="zcDVGkyEsJZhLmUj3jBQ-28" value="no" style="edgeStyle=orthogonalEdgeStyle;html=1;align=left;verticalAlign=bottom;endArrow=open;endSize=8;strokeColor=#ff0000;rounded=0;" parent="1" source="zcDVGkyEsJZhLmUj3jBQ-27" target="zcDVGkyEsJZhLmUj3jBQ-15" edge="1">
          <mxGeometry x="-1" relative="1" as="geometry">
            <mxPoint x="570" y="540" as="targetPoint" />
          </mxGeometry>
        </mxCell>
        <mxCell id="zcDVGkyEsJZhLmUj3jBQ-29" value="yes" style="edgeStyle=orthogonalEdgeStyle;html=1;align=left;verticalAlign=top;endArrow=open;endSize=8;strokeColor=#ff0000;rounded=0;" parent="1" source="zcDVGkyEsJZhLmUj3jBQ-27" target="zcDVGkyEsJZhLmUj3jBQ-17" edge="1">
          <mxGeometry x="-1" relative="1" as="geometry">
            <mxPoint x="430" y="620" as="targetPoint" />
          </mxGeometry>
        </mxCell>
        <mxCell id="zcDVGkyEsJZhLmUj3jBQ-31" value="" style="endArrow=none;html=1;rounded=0;" parent="1" edge="1">
          <mxGeometry width="50" height="50" relative="1" as="geometry">
            <mxPoint x="400" y="690" as="sourcePoint" />
            <mxPoint x="400" y="80" as="targetPoint" />
          </mxGeometry>
        </mxCell>
        <mxCell id="zcDVGkyEsJZhLmUj3jBQ-32" value="" style="endArrow=none;html=1;rounded=0;" parent="1" edge="1">
          <mxGeometry width="50" height="50" relative="1" as="geometry">
            <mxPoint x="780" y="690" as="sourcePoint" />
            <mxPoint x="780" y="79" as="targetPoint" />
          </mxGeometry>
        </mxCell>
        <mxCell id="zcDVGkyEsJZhLmUj3jBQ-33" value="" style="endArrow=none;html=1;rounded=0;" parent="1" edge="1">
          <mxGeometry width="50" height="50" relative="1" as="geometry">
            <mxPoint x="120" y="690" as="sourcePoint" />
            <mxPoint x="120" y="80" as="targetPoint" />
          </mxGeometry>
        </mxCell>
        <mxCell id="zcDVGkyEsJZhLmUj3jBQ-35" value="User" style="text;html=1;align=center;verticalAlign=middle;resizable=0;points=[];autosize=1;strokeColor=none;fillColor=none;" parent="1" vertex="1">
          <mxGeometry x="215" y="48" width="50" height="30" as="geometry" />
        </mxCell>
        <mxCell id="zcDVGkyEsJZhLmUj3jBQ-36" value="System" style="text;html=1;align=center;verticalAlign=middle;resizable=0;points=[];autosize=1;strokeColor=none;fillColor=none;" parent="1" vertex="1">
          <mxGeometry x="560" y="48" width="60" height="30" as="geometry" />
        </mxCell>
      </root>
    </mxGraphModel>
  </diagram>
</mxfile>
